<svg width="209" height="17" viewBox="0 0 209 17" fill="none" xmlns="http://www.w3.org/2000/svg">
<g clip-path="url(#clip0_1_344)">
<path d="M16.0419 8.22639C16.0419 3.78039 12.4599 0.176392 8.04192 0.176392C3.62192 0.177392 0.039917 3.78039 0.039917 8.22739C0.039917 12.2444 2.96592 15.5744 6.78992 16.1784V10.5534H4.75992V8.22739H6.79192V6.45239C6.79192 4.43539 7.98692 3.32139 9.81392 3.32139C10.6899 3.32139 11.6049 3.47839 11.6049 3.47839V5.45839H10.5959C9.60292 5.45839 9.29292 6.07939 9.29292 6.71639V8.22639H11.5109L11.1569 10.5524H9.29192V16.1774C13.1159 15.5734 16.0419 12.2434 16.0419 8.22639Z" fill="#3B82F6"/>
</g>
<g clip-path="url(#clip1_1_344)">
<path d="M53.0659 15.1764C59.1039 15.1764 62.4069 10.1734 62.4069 5.84235C62.4069 5.70235 62.4069 5.56035 62.4009 5.42035C63.044 4.95484 63.599 4.3785 64.0399 3.71835C63.4392 3.9832 62.8027 4.15776 62.1509 4.23635C62.8375 3.82599 63.3516 3.18032 63.5979 2.41935C62.9529 2.80148 62.2469 3.06973 61.5109 3.21235C61.0161 2.68538 60.3613 2.33627 59.648 2.21911C58.9347 2.10195 58.2026 2.22327 57.5653 2.56429C56.9279 2.90531 56.4207 3.44698 56.1224 4.10541C55.824 4.76384 55.7511 5.50229 55.9149 6.20635C54.6097 6.1409 53.3327 5.80182 52.167 5.2111C51.0012 4.62037 49.9726 3.7912 49.1479 2.77735C48.7293 3.50044 48.6015 4.35575 48.7906 5.16962C48.9796 5.98348 49.4714 6.69488 50.1659 7.15935C49.6455 7.14167 49.1364 7.00191 48.6799 6.75135V6.79635C48.6808 7.55383 48.9432 8.28777 49.4228 8.87411C49.9024 9.46045 50.5697 9.86323 51.3119 10.0144C51.0302 10.092 50.7391 10.1307 50.4469 10.1294C50.2409 10.13 50.0353 10.1109 49.8329 10.0724C50.0427 10.7244 50.4512 11.2945 51.0012 11.7028C51.5511 12.1111 52.2151 12.3372 52.8999 12.3494C51.7365 13.2632 50.2993 13.7588 48.8199 13.7564C48.5592 13.7575 48.2987 13.7424 48.0399 13.7114C49.5414 14.6686 51.2852 15.1769 53.0659 15.1764Z" fill="#3B82F6"/>
</g>
<g clip-path="url(#clip2_1_344)">
<path d="M104.04 0.176392C101.869 0.176392 101.596 0.186392 100.743 0.224392C99.8899 0.264392 99.3089 0.398392 98.7999 0.596392C98.266 0.797211 97.7824 1.11222 97.3829 1.51939C96.976 1.91909 96.661 2.40263 96.4599 2.93639C96.2619 3.44439 96.1269 4.02639 96.0879 4.87639C96.0499 5.73139 96.0399 6.00339 96.0399 8.17739C96.0399 10.3494 96.0499 10.6214 96.0879 11.4744C96.1279 12.3264 96.2619 12.9074 96.4599 13.4164C96.6649 13.9424 96.9379 14.3884 97.3829 14.8334C97.8269 15.2784 98.2729 15.5524 98.7989 15.7564C99.3089 15.9544 99.8889 16.0894 100.741 16.1284C101.595 16.1664 101.867 16.1764 104.04 16.1764C106.213 16.1764 106.484 16.1664 107.338 16.1284C108.189 16.0884 108.772 15.9544 109.281 15.7564C109.814 15.5555 110.298 15.2405 110.697 14.8334C111.142 14.3884 111.415 13.9424 111.62 13.4164C111.817 12.9074 111.952 12.3264 111.992 11.4744C112.03 10.6214 112.04 10.3494 112.04 8.17639C112.04 6.00339 112.03 5.73139 111.992 4.87739C111.952 4.02639 111.817 3.44439 111.62 2.93639C111.419 2.40262 111.104 1.91907 110.697 1.51939C110.298 1.11207 109.814 0.797037 109.28 0.596392C108.77 0.398392 108.188 0.263392 107.337 0.224392C106.483 0.186392 106.212 0.176392 104.038 0.176392H104.041H104.04ZM103.323 1.61839H104.041C106.177 1.61839 106.43 1.62539 107.273 1.66439C108.053 1.69939 108.477 1.83039 108.759 1.93939C109.132 2.08439 109.399 2.25839 109.679 2.53839C109.959 2.81839 110.132 3.08439 110.277 3.45839C110.387 3.73939 110.517 4.16339 110.552 4.94339C110.591 5.78639 110.599 6.03939 110.599 8.17439C110.599 10.3094 110.591 10.5634 110.552 11.4064C110.517 12.1864 110.386 12.6094 110.277 12.8914C110.149 13.2388 109.944 13.5528 109.678 13.8104C109.398 14.0904 109.132 14.2634 108.758 14.4084C108.478 14.5184 108.054 14.6484 107.273 14.6844C106.43 14.7224 106.177 14.7314 104.041 14.7314C101.905 14.7314 101.651 14.7224 100.808 14.6844C100.028 14.6484 99.6049 14.5184 99.3229 14.4084C98.9754 14.2803 98.661 14.076 98.4029 13.8104C98.1367 13.5524 97.9316 13.238 97.8029 12.8904C97.6939 12.6094 97.5629 12.1854 97.5279 11.4054C97.4899 10.5624 97.4819 10.3094 97.4819 8.17239C97.4819 6.03639 97.4899 5.78439 97.5279 4.94139C97.5639 4.16139 97.6939 3.73739 97.8039 3.45539C97.9489 3.08239 98.1229 2.81539 98.4029 2.53539C98.6829 2.25539 98.9489 2.08239 99.3229 1.93739C99.6049 1.82739 100.028 1.69739 100.808 1.66139C101.546 1.62739 101.832 1.61739 103.323 1.61639V1.61839ZM108.311 2.94639C108.185 2.94639 108.06 2.97122 107.944 3.01947C107.827 3.06771 107.721 3.13842 107.632 3.22757C107.543 3.31671 107.472 3.42254 107.424 3.53902C107.376 3.65549 107.351 3.78032 107.351 3.90639C107.351 4.03246 107.376 4.15729 107.424 4.27377C107.472 4.39024 107.543 4.49607 107.632 4.58521C107.721 4.67436 107.827 4.74507 107.944 4.79332C108.06 4.84156 108.185 4.86639 108.311 4.86639C108.566 4.86639 108.81 4.76525 108.99 4.58521C109.17 4.40518 109.271 4.161 109.271 3.90639C109.271 3.65178 109.17 3.4076 108.99 3.22757C108.81 3.04753 108.566 2.94639 108.311 2.94639ZM104.041 4.06839C103.496 4.05989 102.955 4.15988 102.449 4.36253C101.943 4.56519 101.482 4.86646 101.094 5.24882C100.706 5.63117 100.397 6.08696 100.187 6.58965C99.9762 7.09234 99.8678 7.6319 99.8678 8.17689C99.8678 8.72189 99.9762 9.26144 100.187 9.76413C100.397 10.2668 100.706 10.7226 101.094 11.105C101.482 11.4873 101.943 11.7886 102.449 11.9913C102.955 12.1939 103.496 12.2939 104.041 12.2854C105.119 12.2686 106.148 11.8283 106.905 11.0596C107.662 10.291 108.086 9.25556 108.086 8.17689C108.086 7.09822 107.662 6.0628 106.905 5.29414C106.148 4.52548 105.119 4.08522 104.041 4.06839ZM104.041 5.50939C104.748 5.50939 105.427 5.79038 105.927 6.29054C106.427 6.7907 106.708 7.46906 106.708 8.17639C106.708 8.88372 106.427 9.56209 105.927 10.0622C105.427 10.5624 104.748 10.8434 104.041 10.8434C103.334 10.8434 102.655 10.5624 102.155 10.0622C101.655 9.56209 101.374 8.88372 101.374 8.17639C101.374 7.46906 101.655 6.7907 102.155 6.29054C102.655 5.79038 103.334 5.50939 104.041 5.50939Z" fill="#3B82F6"/>
</g>
<g clip-path="url(#clip3_1_344)">
<path d="M144.04 1.32239C144.04 0.689392 144.566 0.176392 145.215 0.176392H158.865C159.514 0.176392 160.04 0.689392 160.04 1.32239V15.0304C160.04 15.6634 159.514 16.1764 158.865 16.1764H145.215C144.566 16.1764 144.04 15.6634 144.04 15.0304V1.32239ZM148.983 13.5704V6.34539H146.582V13.5704H148.983ZM147.783 5.35839C148.62 5.35839 149.141 4.80439 149.141 4.11039C149.126 3.40139 148.621 2.86239 147.799 2.86239C146.977 2.86239 146.44 3.40239 146.44 4.11039C146.44 4.80439 146.961 5.35839 147.767 5.35839H147.783ZM152.691 13.5704V9.53539C152.691 9.31939 152.707 9.10339 152.771 8.94939C152.944 8.51839 153.339 8.07139 154.003 8.07139C154.872 8.07139 155.219 8.73339 155.219 9.70539V13.5704H157.62V9.42639C157.62 7.20639 156.436 6.17439 154.856 6.17439C153.582 6.17439 153.011 6.87439 152.691 7.36739V7.39239H152.675C152.68 7.38404 152.686 7.37571 152.691 7.36739V6.34539H150.291C150.321 7.02339 150.291 13.5704 150.291 13.5704H152.691Z" fill="#3B82F6"/>
</g>
<g clip-path="url(#clip4_1_344)">
<path d="M192.04 8.17639C192.04 6.05466 192.883 4.01983 194.383 2.51954C195.883 1.01925 197.918 0.176392 200.04 0.176392C202.162 0.176392 204.196 1.01925 205.697 2.51954C207.197 4.01983 208.04 6.05466 208.04 8.17639C208.04 10.2981 207.197 12.333 205.697 13.8332C204.196 15.3335 202.162 16.1764 200.04 16.1764C197.918 16.1764 195.883 15.3335 194.383 13.8332C192.883 12.333 192.04 10.2981 192.04 8.17639ZM199.54 1.25339C198.87 1.45739 198.205 2.07339 197.653 3.10839C197.471 3.45249 197.315 3.80944 197.185 4.17639H199.54V1.25339ZM196.13 4.17639C196.297 3.64521 196.511 3.13013 196.77 2.63739C196.943 2.31045 197.143 1.99838 197.367 1.70439C196.128 2.21822 195.062 3.07601 194.295 4.17639H196.13ZM195.548 7.67639C195.578 6.79939 195.686 5.95839 195.86 5.17639H193.714C193.341 5.96144 193.119 6.8094 193.058 7.67639H195.548ZM196.887 5.17639C196.69 5.99619 196.577 6.83379 196.549 7.67639H199.54V5.17639H196.887ZM200.54 5.17639V7.67639H203.53C203.502 6.83382 203.389 5.99622 203.193 5.17639H200.54ZM196.55 8.67639C196.578 9.51896 196.691 10.3566 196.887 11.1764H199.54V8.67639H196.55ZM200.54 8.67639V11.1764H203.193C203.38 10.4114 203.499 9.56839 203.531 8.67639H200.54ZM197.185 12.1764C197.323 12.5624 197.48 12.9204 197.653 13.2444C198.205 14.2794 198.871 14.8944 199.54 15.0994V12.1764H197.185ZM197.367 14.6484C197.142 14.3544 196.943 14.0423 196.77 13.7154C196.511 13.2227 196.297 12.7076 196.13 12.1764H194.295C195.062 13.2768 196.128 14.1346 197.367 14.6484ZM195.86 11.1764C195.679 10.3545 195.575 9.51756 195.548 8.67639H193.058C193.12 9.56639 193.349 10.4094 193.714 11.1764H195.86ZM202.713 14.6484C203.952 14.1346 205.018 13.2768 205.785 12.1764H203.95C203.783 12.7076 203.569 13.2226 203.31 13.7154C203.137 14.0424 202.937 14.3544 202.713 14.6484ZM200.54 12.1764V15.0994C201.21 14.8954 201.875 14.2794 202.427 13.2444C202.6 12.9204 202.757 12.5624 202.895 12.1764H200.54ZM204.22 11.1764H206.366C206.731 10.4094 206.96 9.56639 207.022 8.67639H204.532C204.505 9.51756 204.401 10.3545 204.22 11.1764ZM207.022 7.67639C206.961 6.80941 206.739 5.96145 206.366 5.17639H204.22C204.394 5.95839 204.502 6.79939 204.532 7.67639H207.022ZM203.31 2.63739C203.557 3.10139 203.772 3.61739 203.95 4.17639H205.785C205.018 3.07597 203.952 2.21817 202.713 1.70439C202.931 1.98839 203.131 2.30239 203.31 2.63739ZM202.895 4.17639C202.765 3.80944 202.609 3.45248 202.427 3.10839C201.875 2.07339 201.21 1.45839 200.54 1.25339V4.17639H202.895Z" fill="#3B82F6"/>
</g>
<defs>
<clipPath id="clip0_1_344">
<rect width="16" height="16" fill="white" transform="translate(0.039917 0.176392)"/>
</clipPath>
<clipPath id="clip1_1_344">
<rect width="16" height="16" fill="white" transform="translate(48.0399 0.176392)"/>
</clipPath>
<clipPath id="clip2_1_344">
<rect width="16" height="16" fill="white" transform="translate(96.0399 0.176392)"/>
</clipPath>
<clipPath id="clip3_1_344">
<rect width="16" height="16" fill="white" transform="translate(144.04 0.176392)"/>
</clipPath>
<clipPath id="clip4_1_344">
<rect width="16" height="16" fill="white" transform="translate(192.04 0.176392)"/>
</clipPath>
</defs>
</svg>
